<mxfile host="app.diagrams.net" agent="Mozilla/5.0 (Macintosh; Intel Mac OS X 10_15_7) AppleWebKit/537.36 (KHTML, like Gecko) Chrome/135.0.0.0 Safari/537.36" version="26.0.16">
  <diagram name="Page-1" id="9WAIeXzmGR1HwareG-w6">
    <mxGraphModel dx="855" dy="1186" grid="1" gridSize="10" guides="1" tooltips="1" connect="1" arrows="1" fold="1" page="1" pageScale="1" pageWidth="3000" pageHeight="3000" math="0" shadow="0">
      <root>
        <mxCell id="0" />
        <mxCell id="1" parent="0" />
        <mxCell id="Vnn7nnUzHmon1-IM3wvu-59" value="" style="group;strokeColor=none;fillColor=none;" vertex="1" connectable="0" parent="1">
          <mxGeometry x="50" y="150" width="200" height="180" as="geometry" />
        </mxCell>
        <mxCell id="Vnn7nnUzHmon1-IM3wvu-54" value="" style="endArrow=none;dashed=1;html=1;rounded=0;strokeColor=light-dark(#6666FF,#FFFFFF);" edge="1" parent="Vnn7nnUzHmon1-IM3wvu-59">
          <mxGeometry width="50" height="50" relative="1" as="geometry">
            <mxPoint y="180" as="sourcePoint" />
            <mxPoint as="targetPoint" />
          </mxGeometry>
        </mxCell>
        <mxCell id="Vnn7nnUzHmon1-IM3wvu-56" value="" style="endArrow=none;dashed=1;html=1;rounded=0;strokeColor=light-dark(#6666FF,#FFFFFF);" edge="1" parent="Vnn7nnUzHmon1-IM3wvu-59">
          <mxGeometry width="50" height="50" relative="1" as="geometry">
            <mxPoint as="sourcePoint" />
            <mxPoint x="200" as="targetPoint" />
          </mxGeometry>
        </mxCell>
        <mxCell id="Vnn7nnUzHmon1-IM3wvu-57" value="" style="endArrow=none;dashed=1;html=1;rounded=0;strokeColor=light-dark(#6666FF,#FFFFFF);" edge="1" parent="Vnn7nnUzHmon1-IM3wvu-59">
          <mxGeometry width="50" height="50" relative="1" as="geometry">
            <mxPoint y="180" as="sourcePoint" />
            <mxPoint x="200" y="180" as="targetPoint" />
          </mxGeometry>
        </mxCell>
        <mxCell id="Vnn7nnUzHmon1-IM3wvu-58" value="" style="endArrow=none;dashed=1;html=1;rounded=0;strokeColor=light-dark(#6666FF,#FFFFFF);" edge="1" parent="Vnn7nnUzHmon1-IM3wvu-59">
          <mxGeometry width="50" height="50" relative="1" as="geometry">
            <mxPoint x="200" y="180" as="sourcePoint" />
            <mxPoint x="200" as="targetPoint" />
            <Array as="points">
              <mxPoint x="200" y="90" />
            </Array>
          </mxGeometry>
        </mxCell>
        <mxCell id="Vnn7nnUzHmon1-IM3wvu-60" value="&lt;font style=&quot;color: rgb(51, 51, 255);&quot;&gt;Data Acquisiton&lt;/font&gt;" style="text;html=1;align=center;verticalAlign=middle;resizable=0;points=[];autosize=1;strokeColor=none;fillColor=none;" vertex="1" parent="Vnn7nnUzHmon1-IM3wvu-59">
          <mxGeometry x="5.454545454545455" width="110" height="30" as="geometry" />
        </mxCell>
        <mxCell id="Vnn7nnUzHmon1-IM3wvu-63" value="Backrest Pressure&lt;div&gt;Sensors&lt;/div&gt;" style="rounded=1;whiteSpace=wrap;html=1;" vertex="1" parent="Vnn7nnUzHmon1-IM3wvu-59">
          <mxGeometry x="40" y="110" width="120" height="60" as="geometry" />
        </mxCell>
        <mxCell id="Vnn7nnUzHmon1-IM3wvu-62" value="Cushion Pressure Sensors" style="rounded=1;whiteSpace=wrap;html=1;" vertex="1" parent="1">
          <mxGeometry x="90" y="180" width="120" height="60" as="geometry" />
        </mxCell>
        <mxCell id="Vnn7nnUzHmon1-IM3wvu-64" value="" style="group;strokeColor=none;fillColor=none;" vertex="1" connectable="0" parent="1">
          <mxGeometry x="270" y="150" width="200" height="180" as="geometry" />
        </mxCell>
        <mxCell id="Vnn7nnUzHmon1-IM3wvu-65" value="" style="endArrow=none;dashed=1;html=1;rounded=0;strokeColor=light-dark(#6666FF,#FFFFFF);" edge="1" parent="Vnn7nnUzHmon1-IM3wvu-64">
          <mxGeometry width="50" height="50" relative="1" as="geometry">
            <mxPoint y="180" as="sourcePoint" />
            <mxPoint as="targetPoint" />
          </mxGeometry>
        </mxCell>
        <mxCell id="Vnn7nnUzHmon1-IM3wvu-66" value="" style="endArrow=none;dashed=1;html=1;rounded=0;strokeColor=light-dark(#6666FF,#FFFFFF);" edge="1" parent="Vnn7nnUzHmon1-IM3wvu-64">
          <mxGeometry width="50" height="50" relative="1" as="geometry">
            <mxPoint as="sourcePoint" />
            <mxPoint x="200" as="targetPoint" />
          </mxGeometry>
        </mxCell>
        <mxCell id="Vnn7nnUzHmon1-IM3wvu-67" value="" style="endArrow=none;dashed=1;html=1;rounded=0;strokeColor=light-dark(#6666FF,#FFFFFF);" edge="1" parent="Vnn7nnUzHmon1-IM3wvu-64">
          <mxGeometry width="50" height="50" relative="1" as="geometry">
            <mxPoint y="180" as="sourcePoint" />
            <mxPoint x="200" y="180" as="targetPoint" />
          </mxGeometry>
        </mxCell>
        <mxCell id="Vnn7nnUzHmon1-IM3wvu-68" value="" style="endArrow=none;dashed=1;html=1;rounded=0;strokeColor=light-dark(#6666FF,#FFFFFF);" edge="1" parent="Vnn7nnUzHmon1-IM3wvu-64">
          <mxGeometry width="50" height="50" relative="1" as="geometry">
            <mxPoint x="200" y="180" as="sourcePoint" />
            <mxPoint x="200" as="targetPoint" />
            <Array as="points">
              <mxPoint x="200" y="90" />
            </Array>
          </mxGeometry>
        </mxCell>
        <mxCell id="Vnn7nnUzHmon1-IM3wvu-69" value="&lt;font style=&quot;color: rgb(51, 51, 255);&quot;&gt;Communication&lt;/font&gt;" style="text;html=1;align=center;verticalAlign=middle;resizable=0;points=[];autosize=1;strokeColor=none;fillColor=none;" vertex="1" parent="Vnn7nnUzHmon1-IM3wvu-64">
          <mxGeometry x="5.454545454545455" width="110" height="30" as="geometry" />
        </mxCell>
        <mxCell id="Vnn7nnUzHmon1-IM3wvu-71" value="Analog-to-Digital Converter" style="rounded=1;whiteSpace=wrap;html=1;" vertex="1" parent="Vnn7nnUzHmon1-IM3wvu-64">
          <mxGeometry x="40" y="110" width="120" height="60" as="geometry" />
        </mxCell>
        <mxCell id="Vnn7nnUzHmon1-IM3wvu-70" value="ESP32 Microcontroller" style="rounded=1;whiteSpace=wrap;html=1;" vertex="1" parent="1">
          <mxGeometry x="310" y="180" width="120" height="60" as="geometry" />
        </mxCell>
        <mxCell id="Vnn7nnUzHmon1-IM3wvu-73" value="" style="endArrow=classic;startArrow=classic;html=1;rounded=0;exitX=1;exitY=0.5;exitDx=0;exitDy=0;entryX=0;entryY=0.5;entryDx=0;entryDy=0;strokeWidth=1;strokeColor=#FF0000;curved=0;" edge="1" parent="1" source="Vnn7nnUzHmon1-IM3wvu-62" target="Vnn7nnUzHmon1-IM3wvu-70">
          <mxGeometry width="50" height="50" relative="1" as="geometry">
            <mxPoint x="240" y="230" as="sourcePoint" />
            <mxPoint x="290" y="180" as="targetPoint" />
          </mxGeometry>
        </mxCell>
        <mxCell id="Vnn7nnUzHmon1-IM3wvu-75" value="" style="endArrow=classic;startArrow=classic;html=1;rounded=0;exitX=1;exitY=0.5;exitDx=0;exitDy=0;strokeWidth=1;strokeColor=#FF0000;curved=0;" edge="1" parent="1" source="Vnn7nnUzHmon1-IM3wvu-63">
          <mxGeometry width="50" height="50" relative="1" as="geometry">
            <mxPoint x="210" y="220" as="sourcePoint" />
            <mxPoint x="310" y="210" as="targetPoint" />
            <Array as="points">
              <mxPoint x="230" y="290" />
              <mxPoint x="230" y="250" />
              <mxPoint x="230" y="210" />
            </Array>
          </mxGeometry>
        </mxCell>
        <mxCell id="Vnn7nnUzHmon1-IM3wvu-78" value="" style="endArrow=classic;html=1;rounded=0;strokeColor=#00FF80;entryX=0.5;entryY=1;entryDx=0;entryDy=0;" edge="1" parent="1" target="Vnn7nnUzHmon1-IM3wvu-70">
          <mxGeometry width="50" height="50" relative="1" as="geometry">
            <mxPoint x="370" y="260" as="sourcePoint" />
            <mxPoint x="390" y="250" as="targetPoint" />
          </mxGeometry>
        </mxCell>
        <mxCell id="Vnn7nnUzHmon1-IM3wvu-89" value="" style="group;strokeColor=none;fillColor=none;" vertex="1" connectable="0" parent="1">
          <mxGeometry x="480" y="150" width="200" height="180" as="geometry" />
        </mxCell>
        <mxCell id="Vnn7nnUzHmon1-IM3wvu-90" value="" style="endArrow=none;dashed=1;html=1;rounded=0;strokeColor=light-dark(#6666FF,#FFFFFF);" edge="1" parent="Vnn7nnUzHmon1-IM3wvu-89">
          <mxGeometry width="50" height="50" relative="1" as="geometry">
            <mxPoint y="180" as="sourcePoint" />
            <mxPoint as="targetPoint" />
          </mxGeometry>
        </mxCell>
        <mxCell id="Vnn7nnUzHmon1-IM3wvu-91" value="" style="endArrow=none;dashed=1;html=1;rounded=0;strokeColor=light-dark(#6666FF,#FFFFFF);" edge="1" parent="Vnn7nnUzHmon1-IM3wvu-89">
          <mxGeometry width="50" height="50" relative="1" as="geometry">
            <mxPoint as="sourcePoint" />
            <mxPoint x="200" as="targetPoint" />
          </mxGeometry>
        </mxCell>
        <mxCell id="Vnn7nnUzHmon1-IM3wvu-92" value="" style="endArrow=none;dashed=1;html=1;rounded=0;strokeColor=light-dark(#6666FF,#FFFFFF);" edge="1" parent="Vnn7nnUzHmon1-IM3wvu-89">
          <mxGeometry width="50" height="50" relative="1" as="geometry">
            <mxPoint y="180" as="sourcePoint" />
            <mxPoint x="200" y="180" as="targetPoint" />
          </mxGeometry>
        </mxCell>
        <mxCell id="Vnn7nnUzHmon1-IM3wvu-93" value="" style="endArrow=none;dashed=1;html=1;rounded=0;strokeColor=light-dark(#6666FF,#FFFFFF);" edge="1" parent="Vnn7nnUzHmon1-IM3wvu-89">
          <mxGeometry width="50" height="50" relative="1" as="geometry">
            <mxPoint x="200" y="180" as="sourcePoint" />
            <mxPoint x="200" as="targetPoint" />
            <Array as="points">
              <mxPoint x="200" y="90" />
            </Array>
          </mxGeometry>
        </mxCell>
        <mxCell id="Vnn7nnUzHmon1-IM3wvu-94" value="&lt;font color=&quot;#3333ff&quot;&gt;Software&lt;/font&gt;" style="text;html=1;align=center;verticalAlign=middle;resizable=0;points=[];autosize=1;strokeColor=none;fillColor=none;" vertex="1" parent="Vnn7nnUzHmon1-IM3wvu-89">
          <mxGeometry x="25.454545454545453" width="70" height="30" as="geometry" />
        </mxCell>
        <mxCell id="Vnn7nnUzHmon1-IM3wvu-95" value="Hardware Drivers" style="rounded=1;whiteSpace=wrap;html=1;" vertex="1" parent="Vnn7nnUzHmon1-IM3wvu-89">
          <mxGeometry x="40" y="30" width="120" height="60" as="geometry" />
        </mxCell>
        <mxCell id="Vnn7nnUzHmon1-IM3wvu-99" value="" style="endArrow=classic;html=1;rounded=0;strokeColor=#3333FF;entryX=0.5;entryY=1;entryDx=0;entryDy=0;exitX=0.5;exitY=0;exitDx=0;exitDy=0;" edge="1" parent="Vnn7nnUzHmon1-IM3wvu-89" source="Vnn7nnUzHmon1-IM3wvu-108" target="Vnn7nnUzHmon1-IM3wvu-95">
          <mxGeometry width="50" height="50" relative="1" as="geometry">
            <mxPoint x="120" y="110" as="sourcePoint" />
            <mxPoint x="120" y="140" as="targetPoint" />
          </mxGeometry>
        </mxCell>
        <mxCell id="Vnn7nnUzHmon1-IM3wvu-108" value="HTTP Listener" style="rounded=1;whiteSpace=wrap;html=1;" vertex="1" parent="Vnn7nnUzHmon1-IM3wvu-89">
          <mxGeometry x="40" y="110" width="120" height="60" as="geometry" />
        </mxCell>
        <mxCell id="Vnn7nnUzHmon1-IM3wvu-96" value="" style="endArrow=classic;html=1;rounded=0;exitX=1;exitY=0.5;exitDx=0;exitDy=0;strokeColor=#00FF80;" edge="1" parent="1" source="Vnn7nnUzHmon1-IM3wvu-70" target="Vnn7nnUzHmon1-IM3wvu-95">
          <mxGeometry width="50" height="50" relative="1" as="geometry">
            <mxPoint x="380" y="250" as="sourcePoint" />
            <mxPoint x="470" y="270" as="targetPoint" />
          </mxGeometry>
        </mxCell>
        <mxCell id="Vnn7nnUzHmon1-IM3wvu-98" value="" style="endArrow=classic;html=1;rounded=0;exitX=1;exitY=0.75;exitDx=0;exitDy=0;strokeColor=#00FF80;entryX=0;entryY=0.75;entryDx=0;entryDy=0;" edge="1" parent="1" source="Vnn7nnUzHmon1-IM3wvu-63" target="Vnn7nnUzHmon1-IM3wvu-71">
          <mxGeometry width="50" height="50" relative="1" as="geometry">
            <mxPoint x="350" y="380" as="sourcePoint" />
            <mxPoint x="310" y="299" as="targetPoint" />
          </mxGeometry>
        </mxCell>
        <mxCell id="Vnn7nnUzHmon1-IM3wvu-109" value="" style="group" vertex="1" connectable="0" parent="1">
          <mxGeometry x="560" y="30" width="132" height="100" as="geometry" />
        </mxCell>
        <mxCell id="Vnn7nnUzHmon1-IM3wvu-45" value="" style="rounded=0;whiteSpace=wrap;html=1;" vertex="1" parent="Vnn7nnUzHmon1-IM3wvu-109">
          <mxGeometry y="10" width="132" height="90" as="geometry" />
        </mxCell>
        <mxCell id="Vnn7nnUzHmon1-IM3wvu-35" value="" style="shape=table;startSize=0;container=1;collapsible=0;childLayout=tableLayout;fontSize=11;fillColor=none;strokeColor=none;" vertex="1" parent="Vnn7nnUzHmon1-IM3wvu-109">
          <mxGeometry x="4" y="30" width="60" height="60" as="geometry" />
        </mxCell>
        <mxCell id="Vnn7nnUzHmon1-IM3wvu-36" value="" style="shape=tableRow;horizontal=0;startSize=0;swimlaneHead=0;swimlaneBody=0;strokeColor=inherit;top=0;left=0;bottom=0;right=0;collapsible=0;dropTarget=0;fillColor=none;points=[[0,0.5],[1,0.5]];portConstraint=eastwest;fontSize=16;" vertex="1" parent="Vnn7nnUzHmon1-IM3wvu-35">
          <mxGeometry width="60" height="20" as="geometry" />
        </mxCell>
        <mxCell id="Vnn7nnUzHmon1-IM3wvu-37" value="Power" style="shape=partialRectangle;html=1;whiteSpace=wrap;connectable=0;strokeColor=inherit;overflow=hidden;fillColor=none;top=0;left=0;bottom=0;right=0;pointerEvents=1;fontSize=12;align=left;spacingLeft=5;" vertex="1" parent="Vnn7nnUzHmon1-IM3wvu-36">
          <mxGeometry width="60" height="20" as="geometry">
            <mxRectangle width="60" height="20" as="alternateBounds" />
          </mxGeometry>
        </mxCell>
        <mxCell id="Vnn7nnUzHmon1-IM3wvu-38" value="" style="shape=tableRow;horizontal=0;startSize=0;swimlaneHead=0;swimlaneBody=0;strokeColor=inherit;top=0;left=0;bottom=0;right=0;collapsible=0;dropTarget=0;fillColor=none;points=[[0,0.5],[1,0.5]];portConstraint=eastwest;fontSize=16;" vertex="1" parent="Vnn7nnUzHmon1-IM3wvu-35">
          <mxGeometry y="20" width="60" height="20" as="geometry" />
        </mxCell>
        <mxCell id="Vnn7nnUzHmon1-IM3wvu-39" value="Data" style="shape=partialRectangle;html=1;whiteSpace=wrap;connectable=0;strokeColor=inherit;overflow=hidden;fillColor=none;top=0;left=0;bottom=0;right=0;pointerEvents=1;fontSize=12;align=left;spacingLeft=5;" vertex="1" parent="Vnn7nnUzHmon1-IM3wvu-38">
          <mxGeometry width="60" height="20" as="geometry">
            <mxRectangle width="60" height="20" as="alternateBounds" />
          </mxGeometry>
        </mxCell>
        <mxCell id="Vnn7nnUzHmon1-IM3wvu-40" value="" style="shape=tableRow;horizontal=0;startSize=0;swimlaneHead=0;swimlaneBody=0;strokeColor=inherit;top=0;left=0;bottom=0;right=0;collapsible=0;dropTarget=0;fillColor=none;points=[[0,0.5],[1,0.5]];portConstraint=eastwest;fontSize=16;" vertex="1" parent="Vnn7nnUzHmon1-IM3wvu-35">
          <mxGeometry y="40" width="60" height="20" as="geometry" />
        </mxCell>
        <mxCell id="Vnn7nnUzHmon1-IM3wvu-41" value="WiFi" style="shape=partialRectangle;html=1;whiteSpace=wrap;connectable=0;strokeColor=inherit;overflow=hidden;fillColor=none;top=0;left=0;bottom=0;right=0;pointerEvents=1;fontSize=12;align=left;spacingLeft=5;" vertex="1" parent="Vnn7nnUzHmon1-IM3wvu-40">
          <mxGeometry width="60" height="20" as="geometry">
            <mxRectangle width="60" height="20" as="alternateBounds" />
          </mxGeometry>
        </mxCell>
        <mxCell id="Vnn7nnUzHmon1-IM3wvu-46" value="&lt;font style=&quot;font-size: 18px;&quot;&gt;Legend&lt;/font&gt;" style="text;strokeColor=none;fillColor=none;html=1;fontSize=24;fontStyle=1;verticalAlign=middle;align=center;" vertex="1" parent="Vnn7nnUzHmon1-IM3wvu-109">
          <mxGeometry x="14" width="100" height="40" as="geometry" />
        </mxCell>
        <mxCell id="Vnn7nnUzHmon1-IM3wvu-47" value="" style="endArrow=none;html=1;rounded=0;strokeColor=#FF3333;strokeWidth=4;" edge="1" parent="Vnn7nnUzHmon1-IM3wvu-109">
          <mxGeometry width="50" height="50" relative="1" as="geometry">
            <mxPoint x="60" y="40" as="sourcePoint" />
            <mxPoint x="110" y="40" as="targetPoint" />
          </mxGeometry>
        </mxCell>
        <mxCell id="Vnn7nnUzHmon1-IM3wvu-49" value="" style="endArrow=none;html=1;rounded=0;strokeColor=#00FF80;strokeWidth=4;" edge="1" parent="Vnn7nnUzHmon1-IM3wvu-109">
          <mxGeometry width="50" height="50" relative="1" as="geometry">
            <mxPoint x="60" y="59.72" as="sourcePoint" />
            <mxPoint x="110" y="59.72" as="targetPoint" />
          </mxGeometry>
        </mxCell>
        <mxCell id="Vnn7nnUzHmon1-IM3wvu-51" value="" style="endArrow=none;html=1;rounded=0;strokeColor=#3333FF;strokeWidth=4;" edge="1" parent="Vnn7nnUzHmon1-IM3wvu-109">
          <mxGeometry width="50" height="50" relative="1" as="geometry">
            <mxPoint x="60" y="80" as="sourcePoint" />
            <mxPoint x="110" y="80" as="targetPoint" />
          </mxGeometry>
        </mxCell>
      </root>
    </mxGraphModel>
  </diagram>
</mxfile>
